:SAMPLES-PER-SECOND 30
:FULLY-SPECIFIED
:DEGREES
856
root  22.0625 37.2472 -9.65285 -158.827 -29.712 168.887
RightUpLeg  -45.776 -2.36311 -15.4556
RightLeg  30.2927 6.65912 3.95804
RightFoot  2.95081 -0.0215275 0.333712
RightToes  -2.9104e-010 0 -3.6325e-017
Spine  43.4573 -3.34094 9.13313
Spine1  -1.46388 -0.434219 4.64865
HEad  -49.517 -23.0671 3.62539
LeftShoulder1  0.971699 -4.88005 -3.57234
LeftArm  12.3314 -64.105 -87.8713
LeftForeArm  42.6388 -76.1426 -47.5985
LeftHand  -0.458189 -0.278666 9.50227
RightShoulder  0.356992 -0.0784511 2.26708
RightArm  -45.8002 69.3904 28.9604
RightForeArm  82.6511 79.8548 82.6321
RightHand  -3.36025 21.6156 -14.7249
LeftUpLeg  -40.009 3.98256 -8.25095
LeftLeg  26.042 -0.0799084 0.301658
LeftFoot  1.03233 -0.20397 1.82379
LeftToes  -3.37426e-010 -1.91496e-010 5.23909e-011
857
root  21.6032 37.3891 -9.71229 -160.142 -29.0637 169.353
RightUpLeg  -43.8542 -1.92081 -15.6809
RightLeg  29.4019 7.16114 4.12228
RightFoot  2.73662 -0.0837166 0.82959
RightToes  -2.9104e-010 0 -3.6325e-017
Spine  42.6836 -3.62091 9.47321
Spine1  -0.768765 -0.484494 3.75519
HEad  -49.4505 -22.7247 4.16031
LeftShoulder1  1.05278 -4.94091 -4.57289
LeftArm  12.2264 -60.7774 -87.1515
LeftForeArm  68.5198 -79.2636 -72.6515
LeftHand  -0.459292 -0.51138 9.167
RightShoulder  0.394345 0.524028 1.55381
RightArm  -41.0219 67.9028 34.9092
RightForeArm  128.024 78.3091 123.385
RightHand  -2.90342 20.5257 -13.3437
LeftUpLeg  -38.3794 4.73477 -8.52246
LeftLeg  26.1346 -0.0284284 0.328335
LeftFoot  0.328759 -0.206694 2.00377
LeftToes  -3.37426e-010 -1.91496e-010 5.23909e-011
858
root  21.1834 37.4844 -9.7595 -161.838 -28.6706 169.734
RightUpLeg  -41.7061 -1.16608 -16.0594
RightLeg  28.9885 7.25779 4.10967
RightFoot  2.29607 -0.130922 1.2248
RightToes  -2.9104e-010 0 -3.6325e-017
Spine  42.0273 -3.79855 9.71121
Spine1  -0.78242 -0.531489 3.01766
HEad  -48.4706 -22.8724 3.47199
LeftShoulder1  1.08547 -4.84402 -5.17074
LeftArm  12.3592 -58.1106 -86.9608
LeftForeArm  93.3189 -79.7826 -95.3037
LeftHand  -0.493337 -1.5504 8.40717
RightShoulder  0.467734 1.33159 1.40639
RightArm  -37.7408 66.9494 37.701
RightForeArm  145.505 75.5737 138.273
RightHand  -2.7328 20.726 -12.4986
LeftUpLeg  -36.5681 5.19505 -8.63172
LeftLeg  26.6829 0.0852217 0.39324
LeftFoot  -0.46864 -0.206554 2.19679
LeftToes  -3.37426e-010 -1.91496e-010 5.23909e-011
859
root  20.7665 37.5204 -9.8111 -163.906 -28.5145 170.242
RightUpLeg  -39.4213 -0.816156 -16.1088
RightLeg  29.1022 7.58384 4.32313
RightFoot  1.53137 -0.16311 1.54129
RightToes  -2.9104e-010 0 -3.6325e-017
Spine  41.2126 -3.7025 10.0429
Spine1  -1.23435 -0.400107 2.77516
HEad  -47.7713 -23.4682 3.15417
LeftShoulder1  1.1722 -5.33076 -5.47793
LeftArm  11.6074 -55.7344 -86.5843
LeftForeArm  110.983 -79.1695 -111.445
LeftHand  -0.51025 -1.37117 8.95499
RightShoulder  0.45872 0.901267 2.2361
RightArm  -31.6287 67.345 42.3694
RightForeArm  154.938 73.6225 144.9
RightHand  -2.66229 19.6888 -12.6738
LeftUpLeg  -34.5137 4.84051 -8.29855
LeftLeg  27.5386 0.895514 0.853026
LeftFoot  -1.78683 -0.181702 2.31051
LeftToes  -3.37426e-010 -1.91496e-010 5.23909e-011
860
root  20.3619 37.5204 -9.92427 -166.544 -28.1891 170.947
RightUpLeg  -36.7689 -0.553021 -15.7991
RightLeg  29.5852 8.2207 4.79422
RightFoot  0.299803 -0.195106 1.93059
RightToes  -2.9104e-010 0 -3.6325e-017
Spine  39.9143 -3.42335 10.1175
Spine1  -0.927771 -0.327934 2.99393
HEad  -47.0049 -22.828 1.4504
LeftShoulder1  1.22244 -5.1029 -6.52034
LeftArm  12.0083 -54.0362 -86.3383
LeftForeArm  118.054 -78.2055 -120.494
LeftHand  -0.576971 -0.617829 11.2505
RightShoulder  0.402361 0.435903 2.01195
RightArm  -24.0383 68.0531 49.5011
RightForeArm  160.599 72.2372 148.54
RightHand  -2.60707 20.3185 -12.1306
LeftUpLeg  -31.9759 5.02697 -7.86236
LeftLeg  28.6333 1.46571 1.21664
LeftFoot  -3.56631 -0.16675 2.76977
LeftToes  -3.37426e-010 -1.91496e-010 5.23909e-011
861
root  19.9519 37.4958 -10.0865 -169.67 -27.7661 171.621
RightUpLeg  -33.7109 -0.265283 -15.4837
RightLeg  30.4437 8.95941 5.42328
RightFoot  -1.17688 -0.186673 2.00776
RightToes  -2.9104e-010 0 -3.6325e-017
Spine  38.4417 -3.30037 10.4089
Spine1  -0.326086 -0.129555 2.14041
HEad  -47.1502 -22.3405 1.21283
LeftShoulder1  1.21573 -4.99802 -6.64073
LeftArm  11.9819 -52.6717 -86.0419
LeftForeArm  126.877 -77.2205 -128.028
LeftHand  -0.543771 -1.26256 9.65733
RightShoulder  0.481784 1.00249 2.57496
RightArm  -20.7049 68.4291 51.9966
RightForeArm  162.959 71.2915 150.491
RightHand  -2.40422 18.6154 -11.9909
LeftUpLeg  -28.9048 5.07141 -7.31031
LeftLeg  29.9704 2.23365 1.74327
LeftFoot  -5.58649 -0.122163 3.10268
LeftToes  -3.37426e-010 -1.91496e-010 5.23909e-011
862
root  19.5781 37.3902 -10.2885 -173.356 -27.729 172.601
RightUpLeg  -30.3565 -0.173161 -14.7932
RightLeg  31.9406 9.50751 6.10688
RightFoot  -3.01908 -0.168405 2.03138
RightToes  -2.9104e-010 0 -3.6325e-017
Spine  37.0454 -3.17689 10.6957
Spine1  -0.179575 -0.0475466 1.75882
HEad  -46.287 -22.0789 0.976639
LeftShoulder1  1.23981 -4.64331 -7.65299
LeftArm  11.5279 -52.1738 -84.968
LeftForeArm  131.353 -76.5387 -131.876
LeftHand  -0.48196 -1.31984 8.59333
RightShoulder  0.512546 1.10493 3.05837
RightArm  -14.3458 68.4073 57.4943
RightForeArm  165.124 70.5034 152.006
RightHand  -2.28637 19.4344 -11.0576
LeftUpLeg  -25.7796 5.34025 -6.4088
LeftLeg  32.1513 2.54559 2.08304
LeftFoot  -7.92503 -0.0509932 3.29281
LeftToes  -3.37426e-010 -1.91496e-010 5.23909e-011
863
root  19.2186 37.2426 -10.5767 -176.95 -27.6662 173.244
RightUpLeg  -27.052 0.323887 -14.4823
RightLeg  33.9138 9.61203 6.6529
RightFoot  -5.16658 -0.140291 1.94141
RightToes  -2.9104e-010 0 -3.6325e-017
Spine  35.0405 -3.26663 11.205
Spine1  0.142713 0.159449 -0.236056
HEad  -43.0104 -21.2707 0.422935
LeftShoulder1  1.24136 -4.46368 -8.09021
LeftArm  11.2275 -51.1051 -83.8114
LeftForeArm  133.956 -75.7543 -135.232
LeftHand  -0.413526 0.445165 9.73529
RightShoulder  0.565034 1.11849 4.31644
RightArm  -8.62163 67.9642 62.7229
RightForeArm  168.045 70.0481 153.055
RightHand  -2.03765 18.6192 -10.2446
LeftUpLeg  -22.5336 5.29434 -5.70863
LeftLeg  34.4615 2.99922 2.57834
LeftFoot  -10.121 0.0260079 3.26742
LeftToes  -3.37426e-010 -1.91496e-010 5.23909e-011
864
root  18.8905 37.0948 -10.9323 179.314 -27.9443 173.635
RightUpLeg  -23.2397 0.7008 -14.351
RightLeg  35.8718 9.60496 7.14381
RightFoot  -7.55623 -0.108496 1.73125
RightToes  -2.9104e-010 0 -3.6325e-017
Spine  32.8154 -2.41795 10.1674
Spine1  1.25717 0.320175 0.578011
HEad  -38.7424 -19.7484 -2.28354
LeftShoulder1  1.26203 -3.74395 -10.1036
LeftArm  11.7424 -50.7122 -83.3319
LeftForeArm  136.945 -75.4127 -136.933
LeftHand  -0.48936 -1.04755 8.94891
RightShoulder  0.554053 1.02612 4.32619
RightArm  -4.58196 67.7826 66.6981
RightForeArm  167.549 70.2667 152.679
RightHand  -2.1893 18.5052 -11.004
LeftUpLeg  -18.7735 5.08835 -5.17635
LeftLeg  36.4462 3.32387 3.00439
LeftFoot  -12.0546 0.0934112 3.3297
LeftToes  -3.37426e-010 -1.91496e-010 5.23909e-011
865
root  18.5678 37.0209 -11.355 176.046 -28.4184 173.725
RightUpLeg  -19.1879 0.962355 -14.4867
RightLeg  37.0269 9.57865 7.42611
RightFoot  -9.81848 -0.0884252 1.67087
RightToes  -2.9104e-010 0 -3.6325e-017
Spine  29.9462 -1.84705 9.7195
Spine1  2.51806 0.616345 -0.0993456
HEad  -34.8928 -18.6817 -3.37116
LeftShoulder1  1.21328 -3.22494 -10.7912
LeftArm  11.6671 -50.7637 -82.5073
LeftForeArm  138.124 -75.2684 -137.606
LeftHand  -0.456489 -0.844424 8.63382
RightShoulder  0.553838 0.825197 4.9679
RightArm  -0.783993 67.3426 70.4678
RightForeArm  166.761 70.4748 152.272
RightHand  -2.38668 19.0783 -11.685
LeftUpLeg  -14.6971 4.98858 -4.90807
LeftLeg  37.322 3.29422 3.068
LeftFoot  -13.6379 0.153297 3.55681
LeftToes  -3.37426e-010 -1.91496e-010 5.23909e-011
866
root  18.3377 37.0171 -11.791 173.359 -29.1882 173.776
RightUpLeg  -15.3239 1.58767 -14.5448
RightLeg  37.4491 9.27175 7.2953
RightFoot  -11.6009 -0.0749497 1.75692
RightToes  -2.9104e-010 0 -3.6325e-017
Spine  27.2011 -1.39721 9.35594
Spine1  3.0871 1.02656 -1.59003
HEad  -32.5086 -17.0963 -3.97333
LeftShoulder1  1.17729 -2.9762 -10.9449
LeftArm  11.3181 -50.4368 -81.7063
LeftForeArm  138.709 -75.2134 -137.885
LeftHand  -0.435674 -0.640044 8.51695
RightShoulder  0.575612 0.780952 5.693
RightArm  1.57743 67.0586 72.9041
RightForeArm  167.938 70.7381 152.047
RightHand  -2.04713 19.0858 -10.103
LeftUpLeg  -10.8746 5.03881 -4.58351
LeftLeg  37.3718 2.93728 2.784
LeftFoot  -14.9111 0.208925 3.82761
LeftToes  -3.37426e-010 -1.91496e-010 5.23909e-011
